<svg width="32" height="32" viewBox="0 0 32 32" fill="none" xmlns="http://www.w3.org/2000/svg">
<ellipse cx="9.86298" cy="9.86304" rx="1.53425" ry="1.53425" fill="#E63F30"/>
<ellipse cx="7.45209" cy="16" rx="1.53425" ry="1.53425" fill="#E63F30"/>
<ellipse cx="24.5479" cy="16" rx="1.53425" ry="1.53425" fill="#E63F30"/>
<circle cx="22.137" cy="22.137" r="1.53425" fill="#E63F30"/>
<ellipse cx="16.0001" cy="24.5479" rx="1.53425" ry="1.53425" fill="#E63F30"/>
<ellipse cx="9.86298" cy="22.137" rx="1.53425" ry="1.53425" fill="#E63F30"/>
<ellipse cx="15.8905" cy="7.34244" rx="1.42466" ry="1.42466" fill="#E63F30"/>
<ellipse cx="21.9178" cy="9.86304" rx="1.53425" ry="1.53425" fill="#E63F30"/>
<path fill-rule="evenodd" clip-rule="evenodd" d="M0.722516 20.7682C0.252985 19.2622 0 17.6606 0 16C0 14.3394 0.252985 12.7379 0.722517 11.2319C3.04285 11.5805 4.82192 13.5825 4.82192 16C4.82192 18.4175 3.04285 20.4195 0.722516 20.7682Z" fill="#E63F30"/>
<path fill-rule="evenodd" clip-rule="evenodd" d="M8.43656 30.103C5.57538 28.5653 3.23602 26.1824 1.75256 23.2883C2.55097 22.7023 3.53643 22.3561 4.60273 22.3561C7.2658 22.3561 9.42465 24.515 9.42465 27.1781C9.42465 28.2779 9.05644 29.2917 8.43656 30.103Z" fill="#E63F30"/>
<path fill-rule="evenodd" clip-rule="evenodd" d="M20.7681 31.2775C19.2621 31.747 17.6606 32 15.9999 32C14.3393 32 12.7378 31.747 11.2318 31.2775C11.5805 28.9572 13.5824 27.1781 16 27.1781C18.4175 27.1781 20.4195 28.9572 20.7681 31.2775Z" fill="#E63F30"/>
<path fill-rule="evenodd" clip-rule="evenodd" d="M30.1645 23.4479C28.6571 26.3086 26.3086 28.6571 23.4479 30.1644C22.8981 29.3812 22.5753 28.4269 22.5753 27.3972C22.5753 24.7342 24.7342 22.5753 27.3972 22.5753C28.4269 22.5753 29.3812 22.8981 30.1645 23.4479Z" fill="#E63F30"/>
<path fill-rule="evenodd" clip-rule="evenodd" d="M31.2775 20.7682C31.747 19.2622 32 17.6606 32 16C32 14.3394 31.747 12.7379 31.2775 11.2319C28.9572 11.5805 27.1781 13.5825 27.1781 16C27.1781 18.4175 28.9572 20.4195 31.2775 20.7682Z" fill="#E63F30"/>
<path fill-rule="evenodd" clip-rule="evenodd" d="M23.4479 1.83551C26.3086 3.34282 28.6571 5.69137 30.1645 8.55207C29.3812 9.10191 28.4269 9.42464 27.3972 9.42464C24.7342 9.42464 22.5753 7.2658 22.5753 4.60272C22.5753 3.57306 22.8981 2.61878 23.4479 1.83551Z" fill="#E63F30"/>
<path fill-rule="evenodd" clip-rule="evenodd" d="M11.2318 0.722513C12.7378 0.252984 14.3393 0 15.9999 0C17.6606 0 19.2621 0.252987 20.7681 0.722521C20.4195 3.04285 18.4175 4.82192 16 4.82192C13.5824 4.82192 11.5805 3.04285 11.2318 0.722513Z" fill="#E63F30"/>
<path fill-rule="evenodd" clip-rule="evenodd" d="M4.60278 9.42464C7.26585 9.42464 9.4247 7.26579 9.4247 4.60272C9.4247 3.57306 9.10196 2.61878 8.55214 1.83551C5.69143 3.34282 3.34288 5.69137 1.83557 8.55207C2.61884 9.1019 3.57312 9.42464 4.60278 9.42464Z" fill="#E63F30"/>
</svg>
